<svg xmlns="http://www.w3.org/2000/svg" viewBox="0 0 1200 800" role="img" aria-label="Retrato de Alessandra">
  <defs>
    <linearGradient id="bg" x1="0" y1="0" x2="1" y2="1">
      <stop offset="0%" stop-color="#1f2937"/>
      <stop offset="100%" stop-color="#334155"/>
    </linearGradient>
    <radialGradient id="skin" cx="50%" cy="45%" r="60%">
      <stop offset="0%" stop-color="#f8d5b7"/>
      <stop offset="100%" stop-color="#e8b894"/>
    </radialGradient>
    <radialGradient id="hair" cx="45%" cy="30%" r="70%">
      <stop offset="0%" stop-color="#3b2a24"/>
      <stop offset="100%" stop-color="#1f1613"/>
    </radialGradient>
    <filter id="shadow" x="-20%" y="-20%" width="140%" height="140%">
      <feDropShadow dx="0" dy="20" stdDeviation="24" flood-color="#000" flood-opacity="0.38"/>
    </filter>
  </defs>
  <rect width="1200" height="800" fill="url(#bg)"/>
  <circle cx="940" cy="120" r="170" fill="#a78bfa" opacity="0.18"/>
  <circle cx="220" cy="700" r="220" fill="#38bdf8" opacity="0.14"/>

  <g filter="url(#shadow)">
    <ellipse cx="600" cy="460" rx="250" ry="270" fill="#1f2937"/>
    <ellipse cx="600" cy="300" rx="178" ry="190" fill="url(#hair)"/>
    <ellipse cx="600" cy="330" rx="130" ry="160" fill="url(#skin)"/>
    <ellipse cx="560" cy="315" rx="14" ry="10" fill="#1f2937"/>
    <ellipse cx="640" cy="315" rx="14" ry="10" fill="#1f2937"/>
    <path d="M555 370c30 22 60 22 90 0" stroke="#7c2d12" stroke-width="8" fill="none" stroke-linecap="round"/>
    <path d="M498 245c28-26 72-30 102-8" stroke="#2b211d" stroke-width="10" fill="none" stroke-linecap="round"/>
    <path d="M702 245c-28-26-72-30-102-8" stroke="#2b211d" stroke-width="10" fill="none" stroke-linecap="round"/>
    <rect x="430" y="495" width="340" height="230" rx="46" fill="#0f172a"/>
    <rect x="478" y="540" width="244" height="28" rx="14" fill="#475569"/>
    <rect x="510" y="586" width="180" height="22" rx="11" fill="#64748b"/>
  </g>

  <text x="600" y="742" fill="#e2e8f0" font-family="Arial, Helvetica, sans-serif" font-size="44" font-weight="700" text-anchor="middle">Alessandra Rossi Bianchi</text>
</svg>