<svg xmlns="http://www.w3.org/2000/svg" viewBox="0 0 1200 800" role="img" aria-label="Almacén Barcelona">
  <defs>
    <linearGradient id="sky" x1="0" y1="0" x2="0" y2="1">
      <stop offset="0%" stop-color="#082f49"/>
      <stop offset="55%" stop-color="#0284c7"/>
      <stop offset="100%" stop-color="#67e8f9"/>
    </linearGradient>
    <linearGradient id="sea" x1="0" y1="0" x2="0" y2="1">
      <stop offset="0%" stop-color="#0f766e"/>
      <stop offset="100%" stop-color="#164e63"/>
    </linearGradient>
    <linearGradient id="ground" x1="0" y1="0" x2="0" y2="1">
      <stop offset="0%" stop-color="#9ca3af"/>
      <stop offset="100%" stop-color="#475569"/>
    </linearGradient>
    <filter id="shadow" x="-20%" y="-20%" width="140%" height="140%">
      <feDropShadow dx="0" dy="24" stdDeviation="28" flood-color="#000000" flood-opacity="0.42"/>
    </filter>
  </defs>
  <rect width="1200" height="800" rx="48" fill="url(#sky)"/>
  <rect y="540" width="1200" height="140" fill="url(#sea)"/>
  <rect y="680" width="1200" height="120" fill="url(#ground)"/>
  <circle cx="920" cy="130" r="95" fill="#fff7ed" opacity="0.28"/>
  <g filter="url(#shadow)">
    <rect x="180" y="280" width="760" height="188" rx="26" fill="#111827" stroke="#bae6fd" stroke-width="8"/>
    <rect x="220" y="312" width="120" height="120" rx="10" fill="#38bdf8"/>
    <rect x="356" y="312" width="120" height="120" rx="10" fill="#22c55e"/>
    <rect x="492" y="312" width="120" height="120" rx="10" fill="#f97316"/>
    <rect x="628" y="312" width="120" height="120" rx="10" fill="#eab308"/>
    <rect x="764" y="312" width="120" height="120" rx="10" fill="#f472b6"/>
    <rect x="200" y="260" width="720" height="34" rx="14" fill="#0f172a" opacity="0.42"/>
  </g>
  <rect x="78" y="522" width="190" height="72" rx="16" fill="#0f172a" opacity="0.75"/>
  <rect x="298" y="504" width="100" height="110" rx="12" fill="#0ea5e9" opacity="0.8"/>
  <rect x="430" y="498" width="160" height="116" rx="16" fill="#22c55e" opacity="0.85"/>
  <rect x="620" y="486" width="120" height="128" rx="12" fill="#f97316" opacity="0.78"/>
  <rect x="772" y="472" width="178" height="142" rx="12" fill="#cbd5e1" opacity="0.72"/>
  <text x="600" y="610" fill="#ffffff" font-family="Arial, Helvetica, sans-serif" font-size="62" font-weight="700" text-anchor="middle">Barcelona Puerto</text>
  <text x="600" y="662" fill="#e0f2fe" font-family="Arial, Helvetica, sans-serif" font-size="24" text-anchor="middle">Mediterranean logistics port</text>
</svg>