<svg xmlns="http://www.w3.org/2000/svg" viewBox="0 0 1200 800" role="img" aria-label="Docking station">
  <defs>
    <linearGradient id="bg" x1="0" y1="0" x2="1" y2="1">
      <stop offset="0%" stop-color="#111827"/>
      <stop offset="100%" stop-color="#ea580c"/>
    </linearGradient>
    <filter id="shadow" x="-20%" y="-20%" width="140%" height="140%">
      <feDropShadow dx="0" dy="22" stdDeviation="28" flood-color="#000000" flood-opacity="0.5"/>
    </filter>
  </defs>
  <rect width="1200" height="800" rx="48" fill="url(#bg)"/>
  <circle cx="980" cy="150" r="170" fill="#fdba74" opacity="0.18"/>
  <circle cx="240" cy="640" r="220" fill="#38bdf8" opacity="0.08"/>
  <g filter="url(#shadow)">
    <rect x="230" y="266" width="740" height="156" rx="34" fill="#0b1220" stroke="#fdba74" stroke-width="8"/>
    <rect x="260" y="296" width="680" height="96" rx="24" fill="#111827"/>
    <rect x="310" y="322" width="92" height="20" rx="10" fill="#38bdf8"/>
    <rect x="426" y="322" width="92" height="20" rx="10" fill="#22c55e"/>
    <rect x="542" y="322" width="92" height="20" rx="10" fill="#f59e0b"/>
    <rect x="658" y="322" width="92" height="20" rx="10" fill="#f472b6"/>
    <rect x="774" y="322" width="92" height="20" rx="10" fill="#a78bfa"/>
    <rect x="340" y="360" width="56" height="16" rx="8" fill="#dbeafe"/>
    <rect x="456" y="360" width="56" height="16" rx="8" fill="#dbeafe"/>
    <rect x="572" y="360" width="56" height="16" rx="8" fill="#dbeafe"/>
    <rect x="688" y="360" width="56" height="16" rx="8" fill="#dbeafe"/>
    <rect x="804" y="360" width="56" height="16" rx="8" fill="#dbeafe"/>
  </g>
  <text x="600" y="516" fill="#ffffff" font-family="Arial, Helvetica, sans-serif" font-size="58" font-weight="700" text-anchor="middle">Docking USB-C</text>
  <text x="600" y="562" fill="#fed7aa" font-family="Arial, Helvetica, sans-serif" font-size="24" text-anchor="middle">7 en 1 hub</text>
</svg>