<svg xmlns="http://www.w3.org/2000/svg" viewBox="0 0 1200 800" role="img" aria-label="Teclado mecánico RGB">
  <defs>
    <linearGradient id="bg" x1="0" y1="0" x2="1" y2="1">
      <stop offset="0%" stop-color="#09090f"/>
      <stop offset="100%" stop-color="#4c1d95"/>
    </linearGradient>
    <linearGradient id="keycap" x1="0" y1="0" x2="0" y2="1">
      <stop offset="0%" stop-color="#334155"/>
      <stop offset="100%" stop-color="#0f172a"/>
    </linearGradient>
    <linearGradient id="board" x1="0" y1="0" x2="1" y2="1">
      <stop offset="0%" stop-color="#111827"/>
      <stop offset="100%" stop-color="#020617"/>
    </linearGradient>
    <filter id="shadow" x="-20%" y="-20%" width="140%" height="140%">
      <feDropShadow dx="0" dy="22" stdDeviation="28" flood-color="#000000" flood-opacity="0.5"/>
    </filter>
  </defs>
  <rect width="1200" height="800" rx="48" fill="url(#bg)"/>
  <circle cx="980" cy="180" r="170" fill="#f472b6" opacity="0.18"/>
  <circle cx="240" cy="620" r="220" fill="#22d3ee" opacity="0.1"/>
  <g filter="url(#shadow)">
    <path d="M170 270h860c24 0 44 20 44 44v178c0 24-20 44-44 44H170c-24 0-44-20-44-44V314c0-24 20-44 44-44Z" fill="url(#board)" stroke="#8b5cf6" stroke-width="8"/>
    <path d="M196 286h808c18 0 32 14 32 32v138c0 18-14 32-32 32H196c-18 0-32-14-32-32V318c0-18 14-32 32-32Z" fill="#0f172a"/>
    <g transform="translate(212 320)">
      <g>
        <rect width="72" height="56" rx="12" fill="url(#keycap)" stroke="#38bdf8" stroke-width="3"/>
        <rect x="84" width="72" height="56" rx="12" fill="url(#keycap)" stroke="#22c55e" stroke-width="3"/>
        <rect x="168" width="72" height="56" rx="12" fill="url(#keycap)" stroke="#f59e0b" stroke-width="3"/>
        <rect x="252" width="72" height="56" rx="12" fill="url(#keycap)" stroke="#f472b6" stroke-width="3"/>
        <rect x="336" width="72" height="56" rx="12" fill="url(#keycap)" stroke="#a78bfa" stroke-width="3"/>
        <rect x="420" width="72" height="56" rx="12" fill="url(#keycap)" stroke="#38bdf8" stroke-width="3"/>
        <rect x="504" width="72" height="56" rx="12" fill="url(#keycap)" stroke="#22c55e" stroke-width="3"/>
        <rect x="588" width="72" height="56" rx="12" fill="url(#keycap)" stroke="#f97316" stroke-width="3"/>
      </g>
      <g transform="translate(24 72)">
        <rect width="92" height="56" rx="12" fill="url(#keycap)" stroke="#f472b6" stroke-width="3"/>
        <rect x="108" width="92" height="56" rx="12" fill="url(#keycap)" stroke="#38bdf8" stroke-width="3"/>
        <rect x="216" width="92" height="56" rx="12" fill="url(#keycap)" stroke="#22c55e" stroke-width="3"/>
        <rect x="324" width="92" height="56" rx="12" fill="url(#keycap)" stroke="#f59e0b" stroke-width="3"/>
        <rect x="432" width="92" height="56" rx="12" fill="url(#keycap)" stroke="#a78bfa" stroke-width="3"/>
        <rect x="540" width="92" height="56" rx="12" fill="url(#keycap)" stroke="#38bdf8" stroke-width="3"/>
      </g>
      <rect x="180" y="146" width="300" height="22" rx="11" fill="#f8fafc" opacity="0.14"/>
    </g>
    <rect x="270" y="562" width="660" height="18" rx="9" fill="#c084fc" opacity="0.6"/>
  </g>
  <text x="600" y="640" fill="#ffffff" font-family="Arial, Helvetica, sans-serif" font-size="64" font-weight="700" text-anchor="middle">Teclado RGB</text>
  <text x="600" y="690" fill="#ddd6fe" font-family="Arial, Helvetica, sans-serif" font-size="26" text-anchor="middle">Mechanical gaming keyboard</text>
</svg>