<svg xmlns="http://www.w3.org/2000/svg" viewBox="0 0 800 500" role="img" aria-label="Teclado mecánico RGB">
  <defs>
    <linearGradient id="bg" x1="0" y1="0" x2="1" y2="1">
      <stop offset="0%" stop-color="#111827"/>
      <stop offset="100%" stop-color="#7c3aed"/>
    </linearGradient>
  </defs>
  <rect width="800" height="500" rx="36" fill="url(#bg)"/>
  <rect x="120" y="140" width="560" height="180" rx="28" fill="#0b1220" stroke="#e879f9" stroke-width="6"/>
  <g fill="#22d3ee">
    <rect x="160" y="180" width="50" height="34" rx="8"/>
    <rect x="220" y="180" width="50" height="34" rx="8"/>
    <rect x="280" y="180" width="50" height="34" rx="8"/>
    <rect x="340" y="180" width="50" height="34" rx="8"/>
    <rect x="400" y="180" width="50" height="34" rx="8"/>
    <rect x="460" y="180" width="50" height="34" rx="8"/>
    <rect x="520" y="180" width="50" height="34" rx="8"/>
    <rect x="580" y="180" width="50" height="34" rx="8"/>
  </g>
  <g fill="#f472b6">
    <rect x="180" y="226" width="80" height="34" rx="8"/>
    <rect x="270" y="226" width="80" height="34" rx="8"/>
    <rect x="360" y="226" width="80" height="34" rx="8"/>
    <rect x="450" y="226" width="80" height="34" rx="8"/>
    <rect x="540" y="226" width="80" height="34" rx="8"/>
  </g>
  <text x="400" y="385" fill="#ffffff" font-family="Arial, Helvetica, sans-serif" font-size="44" font-weight="700" text-anchor="middle">Teclado RGB</text>
  <text x="400" y="424" fill="#d8b4fe" font-family="Arial, Helvetica, sans-serif" font-size="22" text-anchor="middle">Mechanical gaming keyboard</text>
</svg>