<svg xmlns="http://www.w3.org/2000/svg" viewBox="0 0 1200 800" role="img" aria-label="Almacén Madrid">
  <defs>
    <linearGradient id="sky" x1="0" y1="0" x2="0" y2="1">
      <stop offset="0%" stop-color="#0f172a"/>
      <stop offset="60%" stop-color="#1d4ed8"/>
      <stop offset="100%" stop-color="#38bdf8"/>
    </linearGradient>
    <linearGradient id="ground" x1="0" y1="0" x2="0" y2="1">
      <stop offset="0%" stop-color="#596b3f"/>
      <stop offset="100%" stop-color="#314024"/>
    </linearGradient>
    <filter id="shadow" x="-20%" y="-20%" width="140%" height="140%">
      <feDropShadow dx="0" dy="24" stdDeviation="28" flood-color="#000000" flood-opacity="0.42"/>
    </filter>
  </defs>
  <rect width="1200" height="800" rx="48" fill="url(#sky)"/>
  <rect y="540" width="1200" height="260" fill="url(#ground)"/>
  <circle cx="930" cy="140" r="110" fill="#fff7ed" opacity="0.35"/>
  <g filter="url(#shadow)">
    <rect x="200" y="260" width="800" height="250" rx="26" fill="#1f2937" stroke="#fde68a" stroke-width="8"/>
    <rect x="260" y="312" width="120" height="146" rx="10" fill="#3b82f6"/>
    <rect x="404" y="312" width="120" height="146" rx="10" fill="#facc15"/>
    <rect x="548" y="312" width="120" height="146" rx="10" fill="#ef4444"/>
    <rect x="692" y="312" width="120" height="146" rx="10" fill="#cbd5e1"/>
    <rect x="836" y="312" width="120" height="146" rx="10" fill="#94a3b8"/>
    <rect x="240" y="270" width="760" height="40" rx="18" fill="#0f172a" opacity="0.45"/>
    <rect x="200" y="478" width="800" height="32" rx="16" fill="#111827" opacity="0.6"/>
  </g>
  <rect x="120" y="572" width="210" height="90" rx="18" fill="#334155"/>
  <rect x="152" y="524" width="146" height="52" rx="16" fill="#e2e8f0"/>
  <rect x="410" y="596" width="240" height="64" rx="12" fill="#22c55e" opacity="0.8"/>
  <text x="600" y="620" fill="#ffffff" font-family="Arial, Helvetica, sans-serif" font-size="62" font-weight="700" text-anchor="middle">Madrid Centro</text>
  <text x="600" y="672" fill="#ffedd5" font-family="Arial, Helvetica, sans-serif" font-size="24" text-anchor="middle">Urban warehouse hub</text>
</svg>