<svg xmlns="http://www.w3.org/2000/svg" viewBox="0 0 1200 800" role="img" aria-label="Monitor LG 4K">
  <defs>
    <linearGradient id="bg" x1="0" y1="0" x2="1" y2="1">
      <stop offset="0%" stop-color="#07111f"/>
      <stop offset="100%" stop-color="#173b7a"/>
    </linearGradient>
    <linearGradient id="screen" x1="0" y1="0" x2="1" y2="1">
      <stop offset="0%" stop-color="#071426"/>
      <stop offset="50%" stop-color="#0f2d57"/>
      <stop offset="100%" stop-color="#0b1220"/>
    </linearGradient>
    <radialGradient id="glow" cx="50%" cy="35%" r="70%">
      <stop offset="0%" stop-color="#67e8f9" stop-opacity="0.55"/>
      <stop offset="60%" stop-color="#38bdf8" stop-opacity="0.15"/>
      <stop offset="100%" stop-color="#38bdf8" stop-opacity="0"/>
    </radialGradient>
    <filter id="shadow" x="-20%" y="-20%" width="140%" height="140%">
      <feDropShadow dx="0" dy="24" stdDeviation="28" flood-color="#000000" flood-opacity="0.45"/>
    </filter>
  </defs>
  <rect width="1200" height="800" rx="48" fill="url(#bg)"/>
  <circle cx="980" cy="140" r="180" fill="#1d4ed8" opacity="0.25"/>
  <circle cx="220" cy="620" r="240" fill="#38bdf8" opacity="0.12"/>
  <g filter="url(#shadow)">
    <rect x="220" y="120" width="760" height="500" rx="32" fill="#0b1220" stroke="#8ec5ff" stroke-width="10"/>
    <rect x="248" y="148" width="704" height="444" rx="24" fill="url(#screen)"/>
    <rect x="248" y="148" width="704" height="444" rx="24" fill="url(#glow)"/>
    <path d="M262 332C360 248 444 412 560 332s170-78 380 20v240H262Z" fill="#0f2a4a" opacity="0.92"/>
    <path d="M262 378C392 284 468 438 602 350s208-56 338 40v202H262Z" fill="#132f56" opacity="0.9"/>
    <circle cx="430" cy="278" r="80" fill="#6ee7ff" opacity="0.55"/>
    <circle cx="798" cy="204" r="60" fill="#93c5fd" opacity="0.45"/>
    <rect x="470" y="642" width="260" height="28" rx="14" fill="#93c5fd"/>
    <rect x="530" y="670" width="140" height="58" rx="16" fill="#dbeafe"/>
    <rect x="430" y="700" width="340" height="24" rx="12" fill="#64748b"/>
  </g>
  <text x="600" y="520" fill="#ffffff" font-family="Arial, Helvetica, sans-serif" font-size="64" font-weight="700" text-anchor="middle">LG 4K 27"</text>
  <text x="600" y="570" fill="#bfdbfe" font-family="Arial, Helvetica, sans-serif" font-size="26" text-anchor="middle">Immersive ultra-thin display</text>
</svg>