<svg xmlns="http://www.w3.org/2000/svg" viewBox="0 0 1200 800" role="img" aria-label="Memoria RAM">
  <defs>
    <linearGradient id="bg" x1="0" y1="0" x2="1" y2="1">
      <stop offset="0%" stop-color="#2a0f0f"/>
      <stop offset="100%" stop-color="#dc2626"/>
    </linearGradient>
    <filter id="shadow" x="-20%" y="-20%" width="140%" height="140%">
      <feDropShadow dx="0" dy="22" stdDeviation="26" flood-color="#000000" flood-opacity="0.45"/>
    </filter>
  </defs>
  <rect width="1200" height="800" rx="48" fill="url(#bg)"/>
  <circle cx="980" cy="130" r="180" fill="#fca5a5" opacity="0.15"/>
  <circle cx="220" cy="620" r="220" fill="#fb7185" opacity="0.08"/>
  <g filter="url(#shadow)">
    <rect x="180" y="282" width="840" height="148" rx="28" fill="#0b1220" stroke="#fecaca" stroke-width="8"/>
    <rect x="220" y="308" width="760" height="96" rx="18" fill="#111827"/>
    <rect x="256" y="326" width="96" height="60" rx="12" fill="#7f1d1d"/>
    <rect x="368" y="326" width="96" height="60" rx="12" fill="#991b1b"/>
    <rect x="480" y="326" width="96" height="60" rx="12" fill="#b91c1c"/>
    <rect x="592" y="326" width="96" height="60" rx="12" fill="#dc2626"/>
    <rect x="704" y="326" width="96" height="60" rx="12" fill="#ef4444"/>
    <rect x="816" y="326" width="96" height="60" rx="12" fill="#fb7185"/>
    <rect x="224" y="290" width="752" height="16" rx="8" fill="#fecaca" opacity="0.42"/>
    <rect x="224" y="410" width="752" height="16" rx="8" fill="#fecaca" opacity="0.42"/>
  </g>
  <text x="600" y="520" fill="#ffffff" font-family="Arial, Helvetica, sans-serif" font-size="64" font-weight="700" text-anchor="middle">RAM DDR5</text>
  <text x="600" y="570" fill="#fecaca" font-family="Arial, Helvetica, sans-serif" font-size="24" text-anchor="middle">Corsair VENGEANCE 32GB</text>
</svg>