<svg xmlns="http://www.w3.org/2000/svg" viewBox="0 0 1200 800" role="img" aria-label="SSD">
  <defs>
    <linearGradient id="bg" x1="0" y1="0" x2="1" y2="1">
      <stop offset="0%" stop-color="#052e16"/>
      <stop offset="100%" stop-color="#16a34a"/>
    </linearGradient>
    <filter id="shadow" x="-20%" y="-20%" width="140%" height="140%">
      <feDropShadow dx="0" dy="22" stdDeviation="26" flood-color="#000000" flood-opacity="0.45"/>
    </filter>
  </defs>
  <rect width="1200" height="800" rx="48" fill="url(#bg)"/>
  <circle cx="980" cy="140" r="180" fill="#86efac" opacity="0.14"/>
  <circle cx="220" cy="620" r="220" fill="#22c55e" opacity="0.08"/>
  <g filter="url(#shadow)">
    <rect x="220" y="236" width="760" height="244" rx="34" fill="#0b1220" stroke="#86efac" stroke-width="8"/>
    <rect x="258" y="274" width="684" height="168" rx="24" fill="#111827"/>
    <rect x="306" y="306" width="160" height="104" rx="18" fill="#14532d"/>
    <rect x="500" y="306" width="372" height="16" rx="8" fill="#bbf7d0"/>
    <rect x="500" y="338" width="320" height="16" rx="8" fill="#bbf7d0"/>
    <rect x="500" y="370" width="350" height="16" rx="8" fill="#bbf7d0"/>
    <rect x="500" y="402" width="220" height="16" rx="8" fill="#bbf7d0"/>
    <rect x="330" y="338" width="92" height="20" rx="10" fill="#052e16"/>
    <rect x="330" y="370" width="92" height="20" rx="10" fill="#052e16"/>
    <rect x="330" y="402" width="92" height="20" rx="10" fill="#052e16"/>
  </g>
  <text x="600" y="548" fill="#ffffff" font-family="Arial, Helvetica, sans-serif" font-size="62" font-weight="700" text-anchor="middle">SSD Samsung 990 PRO</text>
  <text x="600" y="600" fill="#dcfce7" font-family="Arial, Helvetica, sans-serif" font-size="24" text-anchor="middle">High-speed NVMe storage</text>
</svg>